<svg width="250" height="200" viewBox="0 0 250 200" fill="none" xmlns="http://www.w3.org/2000/svg">
<rect width="250" height="200" fill="white"/>
<path fill-rule="evenodd" clip-rule="evenodd" d="M63 134H154C154.515 134 155.017 133.944 155.5 133.839C155.983 133.944 156.485 134 157 134H209C212.866 134 216 130.866 216 127C216 123.134 212.866 120 209 120H203C199.134 120 196 116.866 196 113C196 109.134 199.134 106 203 106H222C225.866 106 229 102.866 229 99C229 95.134 225.866 92 222 92H200C203.866 92 207 88.866 207 85C207 81.134 203.866 78 200 78H136C139.866 78 143 74.866 143 71C143 67.134 139.866 64 136 64H79C75.134 64 72 67.134 72 71C72 74.866 75.134 78 79 78H39C35.134 78 32 81.134 32 85C32 88.866 35.134 92 39 92H64C67.866 92 71 95.134 71 99C71 102.866 67.866 106 64 106H24C20.134 106 17 109.134 17 113C17 116.866 20.134 120 24 120H63C59.134 120 56 123.134 56 127C56 130.866 59.134 134 63 134ZM226 134C229.866 134 233 130.866 233 127C233 123.134 229.866 120 226 120C222.134 120 219 123.134 219 127C219 130.866 222.134 134 226 134Z" fill="#F3F7FF"/>
<path fill-rule="evenodd" clip-rule="evenodd" d="M113.119 112.307C113.04 112.86 113 113.425 113 114C113 120.627 118.373 126 125 126C131.627 126 137 120.627 137 114C137 113.425 136.96 112.86 136.881 112.307H166V139C166 140.657 164.657 142 163 142H87C85.3431 142 84 140.657 84 139V112.307H113.119Z" fill="white"/>
<path fill-rule="evenodd" clip-rule="evenodd" d="M138 112C138 119.18 132.18 125 125 125C117.82 125 112 119.18 112 112C112 111.767 112.006 111.536 112.018 111.307H84L93.5604 83.0389C93.9726 81.8202 95.1159 81 96.4023 81H153.598C154.884 81 156.027 81.8202 156.44 83.0389L166 111.307H137.982C137.994 111.536 138 111.767 138 112Z" fill="white"/>
<path fill-rule="evenodd" clip-rule="evenodd" d="M136.098 112.955C136.098 118.502 131.129 124 125 124C118.871 124 113.902 118.502 113.902 112.955C113.902 112.775 113.908 111.596 113.918 111.419H93L101.161 91.5755C101.513 90.6338 102.489 90 103.587 90H146.413C147.511 90 148.487 90.6338 148.839 91.5755L157 111.419H136.082C136.092 111.596 136.098 112.775 136.098 112.955Z" fill="#E8F0FE"/>
<path fill-rule="evenodd" clip-rule="evenodd" d="M85.25 111.512V138C85.25 138.966 86.0335 139.75 87 139.75H163C163.966 139.75 164.75 138.966 164.75 138V111.512L155.255 83.4393C155.015 82.7285 154.348 82.25 153.598 82.25H96.4023C95.6519 82.25 94.985 82.7285 94.7446 83.4393L85.25 111.512Z" stroke="#1F64E7" stroke-width="2.5"/>
<path d="M98 111C101.937 111 106.185 111 110.745 111C112.621 111 112.621 112.319 112.621 113C112.621 119.627 118.117 125 124.897 125C131.677 125 137.173 119.627 137.173 113C137.173 112.319 137.173 111 139.05 111H164M90.5737 111H93H90.5737Z" stroke="#1F64E7" stroke-width="2.5" stroke-linecap="round" stroke-linejoin="round"/>
<path d="M150.1 58.3027L139 70.7559M124.1 54V70.7559V54ZM98 58.3027L109.1 70.7559L98 58.3027Z" stroke="#75A4FE" stroke-width="2.5" stroke-linecap="round" stroke-linejoin="round"/>
<path d="M75.8 172V158H78.32L84.5 169.64V158H86.3V172H83.82L77.6 160.44V172H75.8ZM89.7016 172V161.6H91.5016V172H89.7016ZM90.6016 159.82C90.2549 159.82 89.9549 159.693 89.7016 159.44C89.4616 159.187 89.3416 158.893 89.3416 158.56C89.3416 158.173 89.4549 157.867 89.6816 157.64C89.9082 157.413 90.2149 157.3 90.6016 157.3C90.9482 157.3 91.2416 157.427 91.4816 157.68C91.7349 157.92 91.8616 158.213 91.8616 158.56C91.8616 158.933 91.7482 159.24 91.5216 159.48C91.2949 159.707 90.9882 159.82 90.6016 159.82ZM98.9016 172.24C97.9149 172.24 97.0482 172.013 96.3016 171.56C95.5682 171.093 95.0016 170.453 94.6016 169.64C94.2016 168.813 94.0016 167.867 94.0016 166.8C94.0016 165.8 94.2016 164.887 94.6016 164.06C95.0149 163.233 95.6016 162.58 96.3616 162.1C97.1216 161.607 98.0149 161.36 99.0416 161.36C99.6282 161.36 100.142 161.413 100.582 161.52C101.035 161.627 101.468 161.78 101.882 161.98L101.342 163.5C100.968 163.313 100.608 163.18 100.262 163.1C99.9282 163.007 99.5549 162.96 99.1416 162.96C98.2082 162.96 97.4216 163.3 96.7816 163.98C96.1549 164.647 95.8416 165.573 95.8416 166.76C95.8416 167.48 95.9749 168.133 96.2416 168.72C96.5082 169.307 96.8749 169.773 97.3416 170.12C97.8216 170.467 98.3816 170.64 99.0216 170.64C99.5282 170.64 99.9616 170.587 100.322 170.48C100.682 170.36 101.068 170.193 101.482 169.98L102.042 171.5C101.628 171.727 101.162 171.907 100.642 172.04C100.135 172.173 99.5549 172.24 98.9016 172.24ZM113.771 172.24C112.771 172.24 111.978 171.913 111.391 171.26C110.818 170.593 110.531 169.647 110.531 168.42V163.54H108.731V161.98H110.571L110.951 158.7H112.331V161.98H115.211V163.54H112.331V168.56C112.331 169.333 112.491 169.873 112.811 170.18C113.145 170.487 113.538 170.64 113.991 170.64C114.325 170.64 114.638 170.587 114.931 170.48C115.238 170.373 115.518 170.247 115.771 170.1L116.271 171.54C116.005 171.7 115.645 171.853 115.191 172C114.738 172.16 114.265 172.24 113.771 172.24ZM121.383 172.24C120.783 172.24 120.216 172.113 119.683 171.86C119.149 171.607 118.716 171.2 118.383 170.64C118.049 170.067 117.883 169.307 117.883 168.36V161.6H119.683V168.12C119.683 168.933 119.856 169.56 120.203 170C120.549 170.427 121.056 170.64 121.723 170.64C122.269 170.64 122.796 170.533 123.303 170.32C123.823 170.093 124.283 169.793 124.683 169.42V161.6H126.483V169.3C126.483 169.873 126.603 170.253 126.843 170.44C127.096 170.613 127.369 170.7 127.663 170.7L127.283 172.1C126.043 172.1 125.276 171.607 124.983 170.62C124.516 171.1 123.976 171.493 123.363 171.8C122.749 172.093 122.089 172.24 121.383 172.24ZM136.049 172V161.6H137.789V163.34C138.163 162.78 138.636 162.313 139.209 161.94C139.796 161.553 140.489 161.36 141.289 161.36C142.463 161.36 143.336 161.713 143.909 162.42C144.496 163.127 144.789 164.06 144.789 165.22V172H142.989V165.42C142.989 164.673 142.809 164.073 142.449 163.62C142.103 163.167 141.616 162.94 140.989 162.94C140.376 162.94 139.796 163.16 139.249 163.6C138.703 164.027 138.236 164.533 137.849 165.12V172H136.049ZM152.045 172.24C150.552 172.24 149.365 171.767 148.485 170.82C147.618 169.86 147.185 168.52 147.185 166.8C147.185 165.76 147.378 164.833 147.765 164.02C148.165 163.193 148.718 162.547 149.425 162.08C150.132 161.6 150.952 161.36 151.885 161.36C152.885 161.36 153.712 161.58 154.365 162.02C155.032 162.447 155.532 163.027 155.865 163.76C156.198 164.493 156.365 165.3 156.365 166.18C156.365 166.647 156.345 167.1 156.305 167.54H149.025C149.145 168.513 149.485 169.273 150.045 169.82C150.605 170.367 151.345 170.64 152.265 170.64C152.865 170.64 153.405 170.58 153.885 170.46C154.365 170.327 154.825 170.16 155.265 169.96L155.685 171.5C155.205 171.713 154.665 171.887 154.065 172.02C153.465 172.167 152.792 172.24 152.045 172.24ZM149.005 166.08H154.705C154.705 165.067 154.452 164.287 153.945 163.74C153.438 163.193 152.738 162.92 151.845 162.92C151.072 162.92 150.432 163.193 149.925 163.74C149.418 164.273 149.112 165.053 149.005 166.08ZM158.764 172V161.6H160.504V163.34C160.877 162.78 161.351 162.313 161.924 161.94C162.511 161.553 163.204 161.36 164.004 161.36C165.177 161.36 166.051 161.713 166.624 162.42C167.211 163.127 167.504 164.06 167.504 165.22V172H165.704V165.42C165.704 164.673 165.524 164.073 165.164 163.62C164.817 163.167 164.331 162.94 163.704 162.94C163.091 162.94 162.511 163.16 161.964 163.6C161.417 164.027 160.951 164.533 160.564 165.12V172H158.764ZM170.6 172V161.6H172.4V172H170.6ZM169.8 160.5L169.18 159.28L172.96 156.78L173.8 158.46L169.8 160.5Z" fill="#4A4A4A"/>
</svg>
